<?xml version="1.0" encoding="UTF-8" standalone="no"?>
<svg
   xmlns="http://www.w3.org/2000/svg"
   id="Axe"
   enable-background="new 0 0 300 300"
   height="289.06046"
   viewBox="0 0 200.00008 169.37136"
   width="341.33347"
   version="1.1"
>  <metadata
     id="metadata65">

  </metadata>
  <defs
     id="defs63" />
  <g
     id="g58"
     transform="translate(-50.000375,-65.314644)">
    <path
       d="M 247.884,132.889 209.346,98.9 211.05,97.197 c 6.492,-6.501 6.492,-17.074 -0.003,-23.575 -6.305,-6.312 -17.268,-6.312 -23.573,0 l -3.18,3.182 -11.255,-9.927 c -2.478,-2.179 -6.223,-2.069 -8.555,0.269 l -34.38,34.386 c -2.335,2.332 -2.451,6.08 -0.269,8.552 l 9.927,11.257 -84.893,84.893 c -6.492,6.501 -6.492,17.074 0.003,23.575 3.25,3.254 7.517,4.877 11.787,4.877 4.27,0 8.536,-1.63 11.787,-4.877 l 83.412,-83.415 33.985,38.536 c 1.218,1.386 2.939,2.118 4.691,2.118 0.989,0 1.99,-0.232 2.912,-0.72 9.65,-5.091 18.519,-11.641 26.354,-19.479 7.831,-7.832 14.384,-16.695 19.478,-26.353 1.347,-2.552 0.77,-5.696 -1.394,-7.607 z M 196.312,82.461 c 1.63,-1.624 4.27,-1.624 5.893,0 1.627,1.624 1.627,4.273 0.003,5.897 l -2.256,2.256 -6.266,-5.526 z m -27.141,-2.326 40.906,36.078 c -3.899,6.227 -8.459,12.025 -13.673,17.237 -5.213,5.213 -11.011,9.775 -17.239,13.672 L 143.092,106.218 Z M 69.606,220.97 c -1.63,1.624 -4.27,1.624 -5.893,0 -1.627,-1.624 -1.627,-4.273 -0.003,-5.897 l 84.336,-84.339 5.527,6.267 z M 220.96,158.009 c -5.777,5.775 -12.177,10.762 -19.081,14.87 l -14.316,-16.233 c 6.365,-4.154 12.291,-8.964 17.679,-14.356 5.393,-5.391 10.202,-11.316 14.354,-17.68 l 16.232,14.317 c -4.11,6.904 -9.097,13.307 -14.868,19.082 z"
       id="path56"
       style="fill:#ffffff"
       />
  </g>
  <path
     style="fill:#ffffff;fill-opacity:0;stroke-width:0.24916942"
     d="M 14.452229,169.09346 C 9.5365704,168.45068 4.4575264,164.97858 2.1907698,160.71137 0.6732403,157.8546 0.2557569,156.1046 0.26973151,152.65878 0.28084089,149.9191 0.36553639,149.30449 0.97329421,147.5532 1.3533069,146.45817 2.0639079,144.8884 2.5524081,144.06482 3.2381313,142.90875 13.295863,132.70391 46.675463,99.296422 L 89.910344,56.025424 89.062123,55.045203 c -0.466517,-0.539115 -2.831016,-3.231322 -5.254447,-5.982673 -2.423426,-2.751358 -4.606928,-5.375684 -4.852225,-5.831842 -0.658424,-1.224416 -0.610435,-4.008891 0.09159,-5.314436 0.313424,-0.582867 8.017582,-8.45881 18.555721,-18.969474 19.931398,-19.87943012 18.887428,-18.98487348 21.843108,-18.71686566 0.79916,0.0724688 1.77955,0.30123046 2.17863,0.50836523 0.39909,0.20712891 3.40755,2.74434963 6.68546,5.63825973 l 5.95983,5.2616487 2.26276,-2.2140119 c 3.35319,-3.2809629 5.87188,-4.7107735 9.53185,-5.4110391 2.41381,-0.4618359 4.12951,-0.4519277 6.50802,0.037559 3.57279,0.7352988 6.79385,2.5340098 9.02039,5.0371582 2.44619,2.7501028 4.23738,7.4053358 4.23738,11.0127648 0,3.95751 -1.79672,8.338987 -4.71644,11.501508 -0.96908,1.049666 -1.76197,1.964344 -1.76197,2.032612 0,0.06827 8.84808,7.927494 19.6624,17.464933 21.70463,19.141904 20.80175,18.22169 20.79107,21.190242 -0.006,1.694754 -0.58628,3.017608 -3.35587,7.651606 -9.42167,15.764056 -22.805,29.099192 -38.59261,38.453632 -4.41091,2.61354 -5.60235,3.11792 -7.3505,3.11175 -2.06842,-0.007 -3.20396,-0.59898 -5.11115,-2.66325 -0.88904,-0.96225 -8.79251,-9.89252 -17.56327,-19.845066 L 111.88501,80.903053 69.277035,123.45293 c -32.529967,32.4856 -42.947355,42.74731 -44.042806,43.38462 -1.980985,1.15249 -4.236282,1.9304 -6.515772,2.24744 -2.106117,0.29294 -2.09083,0.29291 -4.266228,0.008 z m 3.948328,-12.47371 c 0.588744,-0.29737 85.137273,-84.701246 85.137273,-84.991613 0,-0.238928 -5.230504,-6.178664 -5.440902,-6.178664 -0.09207,0 -19.360981,19.201623 -42.819803,42.670267 -42.574389,42.59222 -42.652717,42.67241 -42.820975,43.84597 -0.270322,1.88546 0.631008,3.74983 2.182559,4.51456 0.944133,0.46535 2.968131,0.54039 3.761848,0.13948 z M 154.18424,106.27678 c 10.03105,-6.26575 20.00618,-15.657178 27.04422,-25.461711 1.83858,-2.56128 4.42874,-6.543194 4.57847,-7.03858 0.0738,-0.24429 -15.91744,-14.573479 -16.23038,-14.54345 -0.0734,0.007 -0.99758,1.271461 -2.05379,2.809817 -6.77988,9.874799 -16.26713,19.446064 -26.56831,26.803558 -1.55333,1.10945 -2.99711,2.113928 -3.20841,2.232176 -0.30525,0.17083 1.0888,1.885781 6.78574,8.347758 3.94344,4.473022 7.26658,8.132762 7.38473,8.132762 0.11814,0 1.13862,-0.57705 2.26773,-1.28233 z M 132.33703,79.868826 c 10.27529,-7.008978 18.84429,-15.573949 25.70386,-25.691771 l 2.16328,-3.190811 -0.86224,-0.84781 C 158.8677,49.672133 149.62472,41.486879 138.80198,31.948977 L 119.12426,14.607342 106.09405,27.632229 c -7.166614,7.163689 -13.000179,13.151883 -12.963476,13.307097 0.079,0.33412 35.873556,40.955332 36.088976,40.955332 0.0812,0 1.48403,-0.911625 3.11748,-2.025832 z m 19.22959,-56.111361 c 1.76222,-1.835168 2.23627,-3.052242 1.80815,-4.642178 -0.69393,-2.577035 -3.41319,-3.937517 -5.80424,-2.903935 -0.44099,0.190629 -1.52141,1.081617 -2.40094,1.979976 l -1.59914,1.633377 1.22538,1.095616 c 3.36386,3.007617 4.97668,4.397841 5.11031,4.40499 0.0811,0.0041 0.82828,-0.701192 1.66048,-1.567846 z"
     id="path67"
     />
  <path
     style="fill:#ffffff;fill-opacity:0;stroke-width:0.24916942"
     d="m 14.269264,169.07717 c -1.983018,-0.2963 -4.3930608,-1.16925 -6.2017163,-2.24634 -1.8112324,-1.07862 -4.4586926,-3.72608 -5.5373203,-5.53732 -3.07148144,-5.15763 -3.15724862,-11.57323 -0.2253574,-16.85732 0.5889973,-1.06154 10.55529,-11.1733 44.216409,-44.861776 l 43.456032,-43.49134 -5.269746,-5.968793 c -2.898358,-3.282837 -5.47912,-6.417298 -5.735028,-6.965472 -0.633914,-1.357887 -0.616447,-3.650572 0.03891,-5.107969 0.731151,-1.625918 35.434933,-36.3637206 37.220643,-37.2571347 1.55393,-0.77745117 3.52897,-0.81941601 5.09635,-0.10829296 0.60295,0.2735625 2.39697,1.64985356 3.98671,3.05842386 1.58974,1.4085761 4.27069,3.7804336 5.95768,5.2708066 l 3.06723,2.7097622 2.41449,-2.3965903 c 2.74756,-2.7271817 4.54267,-3.9016875 7.39788,-4.8402891 1.72278,-0.566332 2.41613,-0.6552773 5.10797,-0.6552773 2.69668,0 3.38211,0.08826 5.10798,0.6577383 4.27143,1.4094199 7.6755,4.3212773 9.56609,8.1828694 1.34187,2.740816 1.77112,4.543435 1.77112,7.437785 0,4.454719 -1.52379,8.199996 -4.68052,11.504109 -1.60368,1.678553 -1.83116,2.020875 -1.52942,2.301563 0.19495,0.181347 8.88839,7.848187 19.31877,17.037422 10.43037,9.189234 19.30052,17.115574 19.71143,17.614095 0.87503,1.061549 1.31595,2.369748 1.31595,3.904325 0,1.339769 -0.94134,3.381023 -3.61977,7.849341 -8.36797,13.959938 -20.3703,26.440334 -34.00481,35.359254 -3.28175,2.14673 -7.98354,4.88366 -9.42268,5.48497 -1.2522,0.5232 -3.35332,0.44852 -4.79187,-0.17033 -1.36333,-0.58649 0.30443,1.24062 -23.14099,-25.352026 L 111.82101,80.842174 68.933565,123.68819 c -42.066311,42.02568 -42.923227,42.86315 -44.756215,43.74054 -3.185332,1.52471 -6.758016,2.11911 -9.908104,1.64844 z m 4.264131,-12.55544 c 0.431841,-0.2051 19.782404,-19.37066 43.00125,-42.59011 l 42.216085,-42.21718 -1.70166,-1.948928 c -3.071812,-3.51818 -3.817166,-4.316039 -4.032029,-4.316039 -0.428578,0 -85.034619,84.857937 -85.289701,85.543637 -1.070912,2.87874 0.868939,5.90155 3.78726,5.90155 0.678498,0 1.586959,-0.16782 2.018795,-0.37293 z M 154.75836,105.90635 c 8.69352,-5.52614 16.95641,-13.010744 23.7101,-21.476832 2.25355,-2.824934 7.41987,-10.312283 7.41987,-10.75333 0,-0.370963 -16.24482,-14.506313 -16.42986,-14.296366 -0.10381,0.117797 -0.7336,0.999053 -1.3995,1.958356 -7.64671,11.015777 -17.01105,20.46798 -27.64406,27.903434 -1.50748,1.054148 -2.74087,2.0234 -2.74087,2.153888 0,0.344737 13.9037,16.1391 14.21888,16.15241 0.14596,0.006 1.43541,-0.73254 2.86544,-1.64156 z M 131.64124,80.356244 c 9.82795,-6.587244 18.57189,-15.068396 25.21709,-24.459211 1.1795,-1.666839 2.4145,-3.488484 2.74443,-4.048101 L 160.20265,50.83144 143.976,36.525008 C 135.05135,28.656471 125.82341,20.518584 123.46949,18.440815 l -4.27988,-3.777768 -13.12773,13.129488 -13.127735,13.129489 14.495265,16.43731 c 20.11535,22.810383 21.64732,24.535324 21.79038,24.535324 0.0694,0 1.15906,-0.692285 2.42145,-1.538414 z m 19.78139,-56.331187 c 1.54973,-1.592408 2.07367,-2.583352 2.07367,-3.921973 0,-2.248582 -1.61799,-4.000289 -3.86721,-4.18681 -1.71155,-0.141938 -2.61639,0.309603 -4.56968,2.280416 l -1.56194,1.575943 3.14633,2.780279 c 1.73048,1.529157 3.22719,2.780285 3.32603,2.780285 0.0988,0 0.75259,-0.588662 1.4528,-1.30814 z"
     id="path69"
     />
  <path
     style="fill:#ffffff;fill-opacity:0;stroke-width:0.24916942"
     d="m 14.269264,169.07717 c -1.983018,-0.2963 -4.3930608,-1.16925 -6.2017163,-2.24634 -1.8112324,-1.07862 -4.4586926,-3.72608 -5.5373203,-5.53732 -3.07148144,-5.15763 -3.15724862,-11.57323 -0.2253574,-16.85732 0.5889973,-1.06154 10.55529,-11.1733 44.216409,-44.861776 l 43.456032,-43.49134 -5.269746,-5.968793 c -2.898358,-3.282837 -5.47912,-6.417298 -5.735028,-6.965472 -0.633914,-1.357887 -0.616447,-3.650572 0.03891,-5.107969 0.731151,-1.625918 35.434933,-36.3637206 37.220643,-37.2571347 1.55393,-0.77745117 3.52897,-0.81941601 5.09635,-0.10829296 0.60295,0.2735625 2.39697,1.64985356 3.98671,3.05842386 1.58974,1.4085761 4.27069,3.7804336 5.95768,5.2708066 l 3.06723,2.7097622 2.41449,-2.3965903 c 2.74756,-2.7271817 4.54267,-3.9016875 7.39788,-4.8402891 1.72278,-0.566332 2.41613,-0.6552773 5.10797,-0.6552773 2.69668,0 3.38211,0.08826 5.10798,0.6577383 4.27143,1.4094199 7.6755,4.3212773 9.56609,8.1828694 1.34187,2.740816 1.77112,4.543435 1.77112,7.437785 0,4.454719 -1.52379,8.199996 -4.68052,11.504109 -1.60368,1.678553 -1.83116,2.020875 -1.52942,2.301563 0.19495,0.181347 8.88839,7.848187 19.31877,17.037422 10.43037,9.189234 19.30052,17.115574 19.71143,17.614095 0.87503,1.061549 1.31595,2.369748 1.31595,3.904325 0,1.339769 -0.94134,3.381023 -3.61977,7.849341 -8.36797,13.959938 -20.3703,26.440334 -34.00481,35.359254 -3.28175,2.14673 -7.98354,4.88366 -9.42268,5.48497 -1.2522,0.5232 -3.35332,0.44852 -4.79187,-0.17033 -1.36333,-0.58649 0.30443,1.24062 -23.14099,-25.352026 L 111.82101,80.842174 68.933565,123.68819 c -42.066311,42.02568 -42.923227,42.86315 -44.756215,43.74054 -3.185332,1.52471 -6.758016,2.11911 -9.908104,1.64844 z m 4.264131,-12.55544 c 0.431841,-0.2051 19.782404,-19.37066 43.00125,-42.59011 l 42.216085,-42.21718 -1.70166,-1.948928 c -3.071812,-3.51818 -3.817166,-4.316039 -4.032029,-4.316039 -0.428578,0 -85.034619,84.857937 -85.289701,85.543637 -1.070912,2.87874 0.868939,5.90155 3.78726,5.90155 0.678498,0 1.586959,-0.16782 2.018795,-0.37293 z M 154.75836,105.90635 c 8.69352,-5.52614 16.95641,-13.010744 23.7101,-21.476832 2.25355,-2.824934 7.41987,-10.312283 7.41987,-10.75333 0,-0.370963 -16.24482,-14.506313 -16.42986,-14.296366 -0.10381,0.117797 -0.7336,0.999053 -1.3995,1.958356 -7.64671,11.015777 -17.01105,20.46798 -27.64406,27.903434 -1.50748,1.054148 -2.74087,2.0234 -2.74087,2.153888 0,0.344737 13.9037,16.1391 14.21888,16.15241 0.14596,0.006 1.43541,-0.73254 2.86544,-1.64156 z M 131.64124,80.356244 c 9.82795,-6.587244 18.57189,-15.068396 25.21709,-24.459211 1.1795,-1.666839 2.4145,-3.488484 2.74443,-4.048101 L 160.20265,50.83144 143.976,36.525008 C 135.05135,28.656471 125.82341,20.518584 123.46949,18.440815 l -4.27988,-3.777768 -13.12773,13.129488 -13.127735,13.129489 14.495265,16.43731 c 20.11535,22.810383 21.64732,24.535324 21.79038,24.535324 0.0694,0 1.15906,-0.692285 2.42145,-1.538414 z m 19.78139,-56.331187 c 1.54973,-1.592408 2.07367,-2.583352 2.07367,-3.921973 0,-2.248582 -1.61799,-4.000289 -3.86721,-4.18681 -1.71155,-0.141938 -2.61639,0.309603 -4.56968,2.280416 l -1.56194,1.575943 3.14633,2.780279 c 1.73048,1.529157 3.22719,2.780285 3.32603,2.780285 0.0988,0 0.75259,-0.588662 1.4528,-1.30814 z"
     id="path71"
     />
  <path
     style="fill:#ffffff;fill-opacity:0;stroke-width:0.24916942"
     d="m 14.269264,169.07717 c -1.983018,-0.2963 -4.3930608,-1.16925 -6.2017163,-2.24634 -1.8112324,-1.07862 -4.4586926,-3.72608 -5.5373203,-5.53732 -3.07148144,-5.15763 -3.15724862,-11.57323 -0.2253574,-16.85732 0.5889973,-1.06154 10.55529,-11.1733 44.216409,-44.861776 l 43.456032,-43.49134 -5.269746,-5.968793 c -2.898358,-3.282837 -5.47912,-6.417298 -5.735028,-6.965472 -0.633914,-1.357887 -0.616447,-3.650572 0.03891,-5.107969 0.731151,-1.625918 35.434933,-36.3637206 37.220643,-37.2571347 1.55393,-0.77745117 3.52897,-0.81941601 5.09635,-0.10829296 0.60295,0.2735625 2.39697,1.64985356 3.98671,3.05842386 1.58974,1.4085761 4.27069,3.7804336 5.95768,5.2708066 l 3.06723,2.7097622 2.41449,-2.3965903 c 2.74756,-2.7271817 4.54267,-3.9016875 7.39788,-4.8402891 1.72278,-0.566332 2.41613,-0.6552773 5.10797,-0.6552773 2.69668,0 3.38211,0.08826 5.10798,0.6577383 4.27143,1.4094199 7.6755,4.3212773 9.56609,8.1828694 1.34187,2.740816 1.77112,4.543435 1.77112,7.437785 0,4.454719 -1.52379,8.199996 -4.68052,11.504109 -1.60368,1.678553 -1.83116,2.020875 -1.52942,2.301563 0.19495,0.181347 8.88839,7.848187 19.31877,17.037422 10.43037,9.189234 19.30052,17.115574 19.71143,17.614095 0.87503,1.061549 1.31595,2.369748 1.31595,3.904325 0,1.339769 -0.94134,3.381023 -3.61977,7.849341 -8.36797,13.959938 -20.3703,26.440334 -34.00481,35.359254 -3.28175,2.14673 -7.98354,4.88366 -9.42268,5.48497 -1.2522,0.5232 -3.35332,0.44852 -4.79187,-0.17033 -1.36333,-0.58649 0.30443,1.24062 -23.14099,-25.352026 L 111.82101,80.842174 68.933565,123.68819 c -42.066311,42.02568 -42.923227,42.86315 -44.756215,43.74054 -3.185332,1.52471 -6.758016,2.11911 -9.908104,1.64844 z m 4.264131,-12.55544 c 0.431841,-0.2051 19.782404,-19.37066 43.00125,-42.59011 l 42.216085,-42.21718 -1.70166,-1.948928 c -3.071812,-3.51818 -3.817166,-4.316039 -4.032029,-4.316039 -0.428578,0 -85.034619,84.857937 -85.289701,85.543637 -1.070912,2.87874 0.868939,5.90155 3.78726,5.90155 0.678498,0 1.586959,-0.16782 2.018795,-0.37293 z M 154.75836,105.90635 c 8.69352,-5.52614 16.95641,-13.010744 23.7101,-21.476832 2.25355,-2.824934 7.41987,-10.312283 7.41987,-10.75333 0,-0.370963 -16.24482,-14.506313 -16.42986,-14.296366 -0.10381,0.117797 -0.7336,0.999053 -1.3995,1.958356 -7.64671,11.015777 -17.01105,20.46798 -27.64406,27.903434 -1.50748,1.054148 -2.74087,2.0234 -2.74087,2.153888 0,0.344737 13.9037,16.1391 14.21888,16.15241 0.14596,0.006 1.43541,-0.73254 2.86544,-1.64156 z M 131.64124,80.356244 c 9.82795,-6.587244 18.57189,-15.068396 25.21709,-24.459211 1.1795,-1.666839 2.4145,-3.488484 2.74443,-4.048101 L 160.20265,50.83144 143.976,36.525008 C 135.05135,28.656471 125.82341,20.518584 123.46949,18.440815 l -4.27988,-3.777768 -13.12773,13.129488 -13.127735,13.129489 14.495265,16.43731 c 20.11535,22.810383 21.64732,24.535324 21.79038,24.535324 0.0694,0 1.15906,-0.692285 2.42145,-1.538414 z m 19.78139,-56.331187 c 1.54973,-1.592408 2.07367,-2.583352 2.07367,-3.921973 0,-2.248582 -1.61799,-4.000289 -3.86721,-4.18681 -1.71155,-0.141938 -2.61639,0.309603 -4.56968,2.280416 l -1.56194,1.575943 3.14633,2.780279 c 1.73048,1.529157 3.22719,2.780285 3.32603,2.780285 0.0988,0 0.75259,-0.588662 1.4528,-1.30814 z"
     id="path73"
     />
</svg>
